<svg width="175" height="175" fill="none" xmlns="http://www.w3.org/2000/svg"><path d="M87.5 175a87.5 87.5 0 100-175 87.5 87.5 0 000 175z" fill="#FFDA45"/><path d="M71 112.4h33V127H71v-14.6z" fill="#2F4859"/><path d="M131.7 46.1H43.3a3.4 3.4 0 00-3.4 3.4V112c0 2 1.6 3.4 3.4 3.4h88.4c1.8 0 3.4-1.5 3.4-3.4V49.5c0-1.9-1.6-3.4-3.4-3.4z" fill="#3A556A"/><path d="M45.8 52h83.4v51.9H45.8v-52z" fill="#309"/><path d="M110.3 125.1H64.8a2 2 0 00-1.3 3.2c.3.3.8.6 1.3.6h45.5a1.9 1.9 0 000-3.8z" fill="#3A556A"/><path d="M87.5 107a2.7 2.7 0 100 5.4 2.7 2.7 0 000-5.4z" fill="#2F4859"/><path d="M64.1 64.6h-.8v-5.2a4.6 4.6 0 01-1.6 1v-.8l1.2-.7.7-1h.5v6.7zM67.7 61.3c0-.6 0-1.2.2-1.8l.7-1.1c.4-.3.8-.4 1.2-.4.4 0 .7 0 1 .2l.6.6c.2.3.4.6.4 1 .2.5.2 1 .2 1.5a6 6 0 01-.3 2c0 .3-.3.7-.6 1-.3.2-.8.4-1.2.4a1.8 1.8 0 01-1.5-.7c-.5-.8-.7-1.7-.7-2.7zm.8 0c0 .8.1 1.5.4 2.2a1.1 1.1 0 001 .5 1.1 1.1 0 00.9-.5c.3-.7.4-1.4.4-2.2a4 4 0 00-.4-2.1 1 1 0 00-1.5-.4 1 1 0 00-.4.3c-.3.7-.4 1.5-.4 2.2zM78 64.6H77v-5.2a4.6 4.6 0 01-1.6 1v-.8l1.2-.7.7-1h.5v6.7zM84.9 64.6h-.8v-5.2l-.8.6-.8.4v-.8l1.2-.7.7-1h.5v6.7zM88.5 61.3c0-.6 0-1.2.2-1.8.1-.5.4-.8.7-1.1.4-.3.8-.4 1.2-.4.3 0 .7 0 1 .2l.6.6.4 1 .2 1.5c0 .7-.1 1.3-.3 2 0 .3-.3.7-.7 1a2 2 0 01-2.7-.3c-.5-.8-.7-1.7-.6-2.7zm.8 0c0 .8 0 1.5.4 2.2a1.1 1.1 0 001 .5 1.1 1.1 0 00.9-.5c.3-.7.4-1.4.3-2.2.1-.7 0-1.4-.3-2.1a1.1 1.1 0 00-1-.6 1 1 0 00-.8.5c-.4.7-.6 1.5-.5 2.2zM98.8 64.6h-.9v-5.2l-.7.6-.9.4v-.8c.5-.2.9-.4 1.2-.7.3-.3.6-.6.7-1h.6v6.7zM102.3 61.3c0-.6 0-1.2.2-1.8.2-.5.4-.8.8-1.1.3-.3.7-.4 1.2-.4.3 0 .6 0 .9.2.2.1.5.3.6.6.2.3.4.6.4 1 .2.5.2 1 .2 1.5 0 .7 0 1.3-.2 2-.2.3-.4.7-.8 1-.3.3-.7.4-1.1.4a1.8 1.8 0 01-1.6-.7c-.4-.8-.7-1.7-.6-2.7zm.9 0c-.1.8 0 1.5.3 2.2a1 1 0 002 0c.2-.7.4-1.4.3-2.2 0-.7 0-1.4-.4-2.1a1.1 1.1 0 00-1-.6 1 1 0 00-.8.5c-.4.7-.5 1.5-.4 2.2zM112.6 64.6h-.8v-5.2a4.6 4.6 0 01-1.6 1v-.8l1.2-.7.7-1h.5v6.7zM64.1 75.6h-.8v-5.1l-.7.5a5 5 0 01-.9.4v-.7l1.2-.8.7-.9h.5v6.6zM67.8 72.4c0-.7 0-1.3.2-2 .2-.3.4-.7.8-1 .3-.3.7-.4 1.1-.4.4 0 .7 0 1 .2l.6.6c.2.3.4.7.4 1 .2.5.2 1 .2 1.6 0 .6 0 1.2-.3 1.8 0 .5-.3.8-.7 1.1a2 2 0 01-2.7-.3c-.5-.8-.7-1.7-.6-2.6zm.8 0c0 .7 0 1.4.4 2.1a1.1 1.1 0 001 .6 1 1 0 00.9-.6 4 4 0 00.4-2.1c0-.8-.1-1.5-.4-2.2a1.1 1.1 0 00-1.5-.4 1 1 0 00-.4.3c-.3.7-.4 1.5-.4 2.3zM74.8 72.4c0-.7 0-1.3.3-2 0-.3.3-.7.7-1 .3-.3.7-.4 1.2-.4a1.8 1.8 0 011.6.8l.4 1 .1 1.6c0 .6 0 1.2-.2 1.8l-.7 1.1c-.4.3-.8.4-1.2.4a1.8 1.8 0 01-1.5-.7c-.5-.8-.8-1.7-.7-2.6zm.8 0c0 .7.1 1.4.4 2.1a1 1 0 001 .6 1.1 1.1 0 00.9-.6c.3-.7.5-1.4.4-2.1 0-.8 0-1.5-.4-2.2a1.1 1.1 0 00-1-.5 1 1 0 00-.8.4c-.4.7-.5 1.5-.5 2.3zM81.8 72.4c0-.7 0-1.3.2-2l.7-1c.4-.3.8-.4 1.2-.4a1.8 1.8 0 011.6.8l.4 1a6.6 6.6 0 010 3.4c-.1.5-.4.8-.7 1.1-.4.3-.8.4-1.2.4a1.8 1.8 0 01-1.5-.7c-.5-.8-.7-1.7-.7-2.6zm.9 0c-.1.7 0 1.4.4 2.1a1 1 0 00.9.6 1.1 1.1 0 001-.6c.2-.7.4-1.4.3-2.1 0-.8 0-1.5-.4-2.2a1.2 1.2 0 00-1-.5 1 1 0 00-.8.4c-.4.7-.5 1.5-.4 2.3zM92.2 75.6h-.8v-5.1l-.8.5-.8.4v-.7l1.2-.8.7-.9h.5v6.6zM95.9 72.4c0-.7 0-1.3.2-2l.7-1c.4-.3.8-.4 1.2-.4a1.8 1.8 0 011.6.8l.4 1 .2 1.6c0 .6 0 1.2-.3 1.8 0 .5-.3.8-.7 1.1a2 2 0 01-2.7-.3c-.5-.8-.7-1.7-.6-2.6zm.8 0c0 .7 0 1.4.4 2.1a1.1 1.1 0 001 .6 1 1 0 00.8-.6c.4-.7.5-1.4.4-2.1 0-.8 0-1.5-.4-2.2a1.1 1.1 0 00-1.4-.4 1 1 0 00-.4.4c-.3.7-.4 1.4-.4 2.2zM103 72.4c-.1-.7 0-1.3.2-2 0-.3.3-.7.7-1 .3-.3.7-.4 1.2-.4.3 0 .6 0 .9.2l.6.6.5 1 .1 1.6c0 .6 0 1.2-.2 1.8l-.7 1.1c-.4.3-.8.4-1.2.4a1.8 1.8 0 01-1.5-.7c-.5-.8-.8-1.7-.7-2.6zm.7 0c0 .7.1 1.4.4 2.1a1 1 0 001 .6 1.1 1.1 0 00.9-.6c.3-.7.4-1.4.4-2.1 0-.8 0-1.5-.4-2.2a1.1 1.1 0 00-1-.5 1 1 0 00-.8.4c-.4.7-.5 1.5-.5 2.3zM113.3 75.6h-.8v-5.1l-.8.5-.8.4v-.7l1.2-.8.7-.9h.5v6.6zM64.1 86.6h-.8v-5.1a4.6 4.6 0 01-1.6 1v-.8l1.2-.8c.3-.2.5-.5.7-.9h.5v6.6zM67.7 83.4c0-.6 0-1.3.2-1.9.2-.4.4-.8.7-1 .4-.3.8-.5 1.2-.5.4 0 .7.1 1 .3.2.1.5.3.6.6.2.3.4.6.4 1 .2.5.2 1 .2 1.5 0 .6 0 1.3-.3 1.9 0 .4-.3.8-.7 1-.3.3-.7.5-1.2.5a1.8 1.8 0 01-1.4-.7c-.6-.8-.8-1.7-.7-2.7zm.8 0c0 .7.1 1.5.4 2.2a1.1 1.1 0 001 .5 1.1 1.1 0 00.9-.5c.5-1.4.5-3 0-4.4a1.1 1.1 0 00-1.5-.4 1 1 0 00-.4.4c-.3.7-.4 1.4-.4 2.2zM78 86.6H77v-5.1a4.6 4.6 0 01-1.6 1v-.8l1.2-.8c.3-.2.5-.5.7-.9h.5v6.6zM81.6 83.4c0-.6 0-1.3.2-1.9.1-.4.4-.8.7-1 .3-.3.8-.5 1.2-.5l1 .3.6.6.4 1c.1.5.2 1 .1 1.5 0 .6 0 1.3-.2 1.9-.1.4-.4.8-.7 1-.3.3-.8.5-1.2.5a1.8 1.8 0 01-1.5-.7c-.5-.8-.7-1.8-.6-2.7zm.8 0c0 .7 0 1.5.4 2.2a1.1 1.1 0 00.9.5 1.1 1.1 0 001-.5c.4-1.4.4-3 0-4.4a1.1 1.1 0 00-1.5-.4 1 1 0 00-.4.4c-.3.7-.5 1.4-.4 2.2zM91.8 86.6H91v-5.1l-.8.5-.8.4v-.7a4.5 4.5 0 001.9-1.7h.5v6.6zM95.4 83.4c0-.6.1-1.3.3-1.9.1-.4.4-.8.7-1 .4-.3.8-.5 1.2-.5l1 .2.6.7.4 1 .1 1.5c0 .6 0 1.3-.3 1.9 0 .4-.3.8-.7 1-.3.3-.7.5-1.2.5a1.8 1.8 0 01-1.4-.7c-.5-.8-.8-1.8-.7-2.7zm.8 0c0 .7.1 1.5.4 2.2a1 1 0 001.9 0c.5-1.4.5-3 0-4.4a1.1 1.1 0 00-1.5-.4 1 1 0 00-.4.4c-.3.7-.4 1.4-.4 2.2zM105.7 86.6h-.8v-5.1l-.8.5-.8.5v-.8l1.2-.8.7-.9h.5v6.6zM112.6 86.6h-.8v-5.1a4.6 4.6 0 01-1.6 1v-.8l1.2-.8c.3-.2.5-.5.7-.9h.5v6.6zM64.1 97.7h-.8v-5.2l-.7.6a5 5 0 01-.9.4v-.8l1.2-.8.7-.8h.5v6.6zM67.8 94.4c0-.6 0-1.3.2-1.9.2-.4.4-.8.8-1 .3-.3.7-.5 1.1-.4.4 0 .7 0 1 .2.2.1.5.3.6.6.2.3.4.6.4 1 .2.5.2 1 .2 1.5 0 .6 0 1.3-.3 1.9 0 .4-.3.8-.7 1a2 2 0 01-2.7-.2c-.5-.8-.7-1.8-.6-2.7zm.8 0c0 .8 0 1.5.4 2.2a1.1 1.1 0 001 .5 1 1 0 00.9-.5 4 4 0 00.4-2.2c0-.7-.1-1.5-.4-2.1a1.1 1.1 0 00-1.5-.5 1 1 0 00-.4.4c-.3.7-.4 1.5-.4 2.2zM74.8 94.4c0-.6 0-1.3.3-1.9 0-.4.3-.8.7-1 .3-.3.7-.5 1.2-.4a1.8 1.8 0 011.6.8l.4 1 .1 1.5c0 .6 0 1.3-.2 1.9-.2.4-.4.8-.7 1-.4.4-.8.5-1.2.5a1.8 1.8 0 01-1.5-.7c-.5-.8-.8-1.8-.7-2.7zm.8 0c0 .8.1 1.5.4 2.2a1 1 0 001 .5 1.1 1.1 0 00.9-.5c.3-.7.5-1.4.4-2.2 0-.7 0-1.5-.4-2.1a1.1 1.1 0 00-1-.6 1 1 0 00-.8.5c-.4.7-.5 1.4-.5 2.2zM85.2 97.7h-.8v-5.2l-.8.6a5 5 0 01-.8.4v-.8A5 5 0 0084 92l.7-.8h.5v6.6zM88.9 94.4c0-.6 0-1.3.2-1.9.1-.4.4-.8.7-1 .4-.3.8-.5 1.2-.4.3 0 .7 0 1 .2l.6.6.4 1 .2 1.5c0 .6 0 1.3-.2 1.9-.2.4-.4.8-.7 1-.4.3-.8.5-1.2.5a1.7 1.7 0 01-1.5-.7c-.5-.8-.8-1.7-.7-2.7zm.8 0c0 .8 0 1.5.4 2.2a1.1 1.1 0 001 .5 1 1 0 00.8-.5 4 4 0 00.4-2.2c.1-.7 0-1.5-.4-2.1a1.1 1.1 0 00-1.4-.5 1 1 0 00-.4.4c-.3.7-.5 1.5-.4 2.2zM95.9 94.4c0-.6 0-1.3.2-1.9.2-.4.4-.8.7-1 .4-.3.8-.5 1.2-.4a1.8 1.8 0 011.6.8l.4 1 .2 1.5c0 .6 0 1.3-.3 1.9 0 .4-.3.8-.7 1a2 2 0 01-2.7-.2c-.5-.8-.7-1.8-.6-2.7zm.8 0c0 .8 0 1.5.4 2.2a1.1 1.1 0 001 .5 1 1 0 00.8-.5c.4-.7.5-1.4.4-2.2 0-.7 0-1.5-.4-2.1a1.1 1.1 0 00-1.4-.5 1 1 0 00-.4.4c-.3.7-.5 1.5-.4 2.2zM103 94.4c-.1-.6 0-1.3.2-1.9 0-.4.3-.8.7-1 .3-.3.7-.5 1.2-.4.3 0 .6 0 .9.2.3.1.5.3.6.6l.5 1 .1 1.5c0 .6 0 1.3-.2 1.9-.2.4-.4.8-.7 1-.4.3-.8.5-1.2.5a1.8 1.8 0 01-1.5-.7c-.5-.8-.8-1.7-.7-2.7zm.7 0c0 .8.1 1.5.4 2.2a1 1 0 001 .5 1.1 1.1 0 00.9-.5c.3-.7.4-1.4.4-2.2 0-.7 0-1.5-.4-2.1a1.1 1.1 0 00-1-.6 1 1 0 00-.8.5c-.4.7-.5 1.4-.5 2.2zM113.3 97.7h-.8v-5.2l-.8.6-.8.4v-.8l1.2-.8.7-.8h.5v6.6z" fill="#E1E6E9"/><path d="M88.5 64.8a13.1 13.1 0 100 26.2 13.1 13.1 0 000-26.2z" fill="#FFDA45"/><path d="M87.5 83l-4.8-4.8 2-2 2.8 3 6-6 1.9 1.9-7.9 7.9z" fill="#309"/></svg>