<svg width="175" height="175" fill="none" xmlns="http://www.w3.org/2000/svg"><path d="M175 87.5A87.2 87.2 0 0187.5 175a87 87 0 01-62.2-26A87.2 87.2 0 0137.8 15.5 87 87 0 01147 23.3 87.6 87.6 0 01175 87.5z" fill="#FFDA45"/><path d="M133.7 79.6c-2.5-7-12.5-7-14.4-1.2-2 5.9 4.6 9.3 14.8 12.7 10.3 3.4 16.6 12.4 15.4 20.4-1.2 8-4.6 18.5-24.9 18.5a26.2 26.2 0 01-23.1-13.8l11.5-6.9s3.9 8.3 11.2 8.3c7.3 0 10.2-2.4 10.2-8 0-6.8-23.6-9.3-27.3-21-3.6-11.7 1.2-28.2 18.3-27 10.6.8 16.6 6 19.6 9.8l-11.3 8.2zM80.6 62.8v46.8c0 5.6-4.9 8.5-9.8 7.5-4.8-1-7-6.8-7-6.8L52.6 118S55 129 70.3 130c15.4 1 24.1-8.2 24.1-16V62.8H80.6z" fill="#309"/><path d="M25.3 15.5V149c3.6 3.7 7.6 7 11.8 10h100.8c3.4-2.4 6.6-5 9.6-7.8H33.1v-128h128V135a87 87 0 007.8-15.2V15.5H25.3z" fill="#309"/><path d="M30 129.8a13.9 13.9 0 100-27.8 13.9 13.9 0 000 27.8z" fill="#3F4A43"/></svg>