<svg width="175" height="175" fill="none" xmlns="http://www.w3.org/2000/svg"><path d="M175 87.5a87.4 87.4 0 11-175 0 87.5 87.5 0 11175 0z" fill="#FFDA45"/><path d="M139.6 136.8a108.3 108.3 0 00-3.7-16.3 169.6 169.6 0 00-17.3-39.4 202.7 202.7 0 00-25.4-34.6A129 129 0 0081 35c-14.3-11.3-27-14.7-36-9.5-8.9 5.1-12.3 17.9-9.6 35.9A105.7 105.7 0 0039 77.7a169 169 0 0012.7 31A212 212 0 0067.3 134a168.7 168.7 0 0020.2 23.3c2.2 2 4.4 4 6.5 5.7a65.3 65.3 0 0015 9.2 87.1 87.1 0 0030.6-14.5 59.7 59.7 0 000-21zm-8 19.7c-1 4.5-3 7.6-5.7 9.2-2.7 1.6-6.3 1.7-10.7.3a51.9 51.9 0 01-16.2-9.2 101.3 101.3 0 01-11.5-10.7 152.8 152.8 0 01-15.8-19.7 198.6 198.6 0 01-24.9-50.8 121.6 121.6 0 01-3.5-15.3c-1-7.3-1-13.7 0-18.6 1.1-4.5 3-7.6 5.8-9.2 1.4-.8 3.2-1.2 5.1-1.2 1.7 0 3.6.3 5.6.9A51.9 51.9 0 0176 41.4a97.6 97.6 0 0111.5 10.7 152.3 152.3 0 0115.8 19.7 200.5 200.5 0 0124.9 50.8 124 124 0 013.5 15.3c1 7.3 1 13.8 0 18.6z" fill="#309"/><path d="M146.2 72.8a109.9 109.9 0 00-16-5 169 169 0 00-33.1-4.4 208.1 208.1 0 00-29.8.7A169 169 0 0037 70c-2.9.8-5.6 1.8-8.2 2.8C12 79.5 2.6 88.8 2.6 99s9.3 19.7 26.2 26.3a110 110 0 0016 5 169 169 0 0033.1 4.5 208.6 208.6 0 0052.3-4.5 129.8 129.8 0 0016-5c16.9-6.6 26.2-16 26.2-26.3s-9.3-19.6-26.2-26.3zm13 35.8a51.8 51.8 0 01-16 9.4 99.7 99.7 0 01-15 4.6 152.9 152.9 0 01-25 3.8 197.8 197.8 0 01-56.4-3.8 121.7 121.7 0 01-15-4.6c-6.9-2.8-12.4-6-16.1-9.4-3.4-3.1-5-6.3-5-9.5 0-3.1 1.6-6.3 5-9.5 3.7-3.4 9.2-6.6 16-9.3a99.6 99.6 0 0115.1-4.7 152.6 152.6 0 0125-3.8 199.7 199.7 0 0156.4 3.8 121.7 121.7 0 0115 4.7c6.9 2.7 12.4 6 16 9.3 3.5 3.2 5.2 6.4 5.2 9.5 0 3.2-1.7 6.4-5.1 9.5z" fill="#309"/><path d="M130 25.6c-9-5.2-21.7-1.8-36 9.5a107.5 107.5 0 00-12.2 11.4A169.2 169.2 0 0056.4 81a212.7 212.7 0 00-9.3 18A169.2 169.2 0 0037 128.3c-.7 2.9-1.2 5.7-1.6 8.5a59.7 59.7 0 000 21A87 87 0 0066 172.3c4.7-2 9.7-5 15-9.2a107.4 107.4 0 0012.2-11.3 169.4 169.4 0 0020.5-26.5A203.3 203.3 0 00136 77.7a131.8 131.8 0 003.6-16.2c2.7-18-.7-30.8-9.6-36zm-1.8 50a152.8 152.8 0 01-9.2 23.5 198.3 198.3 0 01-31.5 47A121.3 121.3 0 0176 156.8a52 52 0 01-16.2 9.2c-4.4 1.4-8 1.3-10.7-.3-2.8-1.6-4.7-4.7-5.7-9.2a51.9 51.9 0 010-18.6 100.6 100.6 0 013.4-15.3A152.7 152.7 0 0156 99.1a198.3 198.3 0 0131.5-47A121.6 121.6 0 0199 41.4a51.9 51.9 0 0116.2-9.2c2-.6 3.9-1 5.6-1 2 0 3.7.5 5.1 1.3 2.8 1.6 4.7 4.7 5.7 9.2a51.8 51.8 0 010 18.6 99.3 99.3 0 01-3.4 15.3z" fill="#309"/><path d="M87.5 115a16 16 0 100-31.8 16 16 0 000 31.9z" fill="#309"/></svg>